<svg xmlns="http://www.w3.org/2000/svg" width="1600" height="1000" viewBox="0 0 1600 1000" font-family="system-ui,'Segoe UI',Roboto,Helvetica,Arial,sans-serif"><linearGradient id="winBg" x1="0" y1="0" x2="0" y2="1"><stop offset="0" stop-color="rgba(255,255,255,0.04)"/><stop offset="1" stop-color="rgba(0,0,0,0.33)"/></linearGradient><linearGradient id="bgTop" x1="0" y1="0" x2="0" y2="1"><stop offset="0" stop-color="#161A21"/><stop offset="1" stop-color="#0B0D10"/></linearGradient><linearGradient id="bookSpine" x1="0" y1="0" x2="0" y2="1"><stop offset="0" stop-color="#0A0C0F"/><stop offset="1" stop-color="#1B202A"/></linearGradient><rect x="0" y="0" width="1600" height="1000" fill="url(#bgTop)"/><rect x="40" y="40" width="1520" height="920" rx="16" fill="url(#winBg)" stroke="rgba(255,255,255,0.07)" stroke-width="1"/><rect x="40" y="104" width="1520" height="1" fill="#262C35"/><circle cx="82" cy="72" r="7" fill="#D0A95F"/><circle cx="112" cy="72" r="7" fill="#262B33"/><circle cx="142" cy="72" r="7" fill="#262B33"/><text x="800" y="77" font-family="ui-monospace,'Cascadia Mono','JetBrains Mono',Consolas,monospace" font-size="13" fill="#9BA4B0" letter-spacing="2">EASYJOB — RECRUITING SUITE</text><text x="1504" y="77" font-family="ui-monospace,'Cascadia Mono','JetBrains Mono',Consolas,monospace" font-size="13" fill="#5E6673" text-anchor="end">127.0.0.1</text><rect x="96" y="144" width="296" height="776" fill="#171B22"/><line x1="392" y1="144" x2="392" y2="920" stroke="#262C35" stroke-width="1"/><rect x="120" y="172" width="36" height="36" fill="#2B2418" stroke="rgba(208,169,95,0.45)" stroke-width="1"/><text x="138" y="196" font-family="system-ui,'Segoe UI',Roboto,Helvetica,Arial,sans-serif" font-size="15" fill="#D0A95F" font-weight="700" text-anchor="middle">EA</text><text x="170" y="198" font-family="system-ui,'Segoe UI',Roboto,Helvetica,Arial,sans-serif" font-size="15" fill="#F1F3F6" font-weight="700" letter-spacing="1">EASYJOB</text><circle cx="128" cy="248" r="4" fill="#5E6673"/><text x="142" y="253" font-family="ui-monospace,'Cascadia Mono','JetBrains Mono',Consolas,monospace" font-size="13" fill="#9BA4B0" letter-spacing="1">DASHBOARD</text><rect x="112" y="270" width="264" height="40" rx="6" fill="#2B2418"/><rect x="112" y="270" width="3" height="40" fill="#D0A95F"/><text x="142" y="299" font-family="ui-monospace,'Cascadia Mono','JetBrains Mono',Consolas,monospace" font-size="13" fill="#D0A95F" letter-spacing="1">OFFERS</text><circle cx="128" cy="340" r="4" fill="#5E6673"/><text x="142" y="345" font-family="ui-monospace,'Cascadia Mono','JetBrains Mono',Consolas,monospace" font-size="13" fill="#9BA4B0" letter-spacing="1">CANDIDATES</text><circle cx="128" cy="386" r="4" fill="#5E6673"/><text x="142" y="391" font-family="ui-monospace,'Cascadia Mono','JetBrains Mono',Consolas,monospace" font-size="13" fill="#9BA4B0" letter-spacing="1">INTERVIEWS</text><circle cx="128" cy="432" r="4" fill="#5E6673"/><text x="142" y="437" font-family="ui-monospace,'Cascadia Mono','JetBrains Mono',Consolas,monospace" font-size="13" fill="#9BA4B0" letter-spacing="1">ANALYTICS</text><circle cx="128" cy="478" r="4" fill="#5E6673"/><text x="142" y="483" font-family="ui-monospace,'Cascadia Mono','JetBrains Mono',Consolas,monospace" font-size="13" fill="#9BA4B0" letter-spacing="1">SETTINGS</text><text x="408" y="188" font-family="system-ui,'Segoe UI',Roboto,Helvetica,Arial,sans-serif" font-size="30" fill="#F1F3F6" font-weight="700">Open positions</text><text x="408" y="210" font-family="ui-monospace,'Cascadia Mono','JetBrains Mono',Consolas,monospace" font-size="12" fill="#9BA4B0" letter-spacing="1">12 ACTIVE OFFERS — 1,284 APPLICATIONS THIS MONTH</text><rect x="1334" y="144" width="170" height="46" rx="4" fill="#D0A95F"/><text x="1419" y="171" font-family="system-ui,'Segoe UI',Roboto,Helvetica,Arial,sans-serif" font-size="12" fill="#0B0D10" font-weight="600" text-anchor="middle">+ New offer</text><rect x="408" y="236" width="262" height="118" rx="8" fill="#171B22" stroke="rgba(255,255,255,0.05)" stroke-width="1"/><text x="430" y="274" font-family="ui-monospace,'Cascadia Mono','JetBrains Mono',Consolas,monospace" font-size="11" fill="#9BA4B0" letter-spacing="1">ACTIVE OFFERS</text><text x="430" y="304" font-family="system-ui,'Segoe UI',Roboto,Helvetica,Arial,sans-serif" font-size="26" fill="#F1F3F6" font-weight="700">24</text><text x="648" y="298" font-family="ui-monospace,'Cascadia Mono','JetBrains Mono',Consolas,monospace" font-size="11" fill="#D0A95F" text-anchor="end">+4</text><path d="M452.0 346.0 L461.3 338.0 L470.7 342.0 L480.0 330.0 L489.3 334.0 L498.7 322.0 L508.0 326.0 L508.0 346.0 L452 346.0 Z" fill="rgba(208,169,95,0.10)"/><path d="M452.0 346.0 L461.3 338.0 L470.7 342.0 L480.0 330.0 L489.3 334.0 L498.7 322.0 L508.0 326.0" fill="none" stroke="#D0A95F" stroke-width="2" stroke-linecap="round" stroke-linejoin="round"/><rect x="686" y="236" width="262" height="118" rx="8" fill="#171B22" stroke="rgba(255,255,255,0.05)" stroke-width="1"/><text x="708" y="274" font-family="ui-monospace,'Cascadia Mono','JetBrains Mono',Consolas,monospace" font-size="11" fill="#9BA4B0" letter-spacing="1">APPLICATIONS</text><text x="708" y="304" font-family="system-ui,'Segoe UI',Roboto,Helvetica,Arial,sans-serif" font-size="26" fill="#F1F3F6" font-weight="700">1,284</text><text x="926" y="298" font-family="ui-monospace,'Cascadia Mono','JetBrains Mono',Consolas,monospace" font-size="11" fill="#D0A95F" text-anchor="end">+12%</text><path d="M730.0 346.0 L739.3 338.0 L748.7 342.0 L758.0 330.0 L767.3 334.0 L776.7 322.0 L786.0 326.0 L786.0 346.0 L730 346.0 Z" fill="rgba(208,169,95,0.10)"/><path d="M730.0 346.0 L739.3 338.0 L748.7 342.0 L758.0 330.0 L767.3 334.0 L776.7 322.0 L786.0 326.0" fill="none" stroke="#D0A95F" stroke-width="2" stroke-linecap="round" stroke-linejoin="round"/><rect x="964" y="236" width="262" height="118" rx="8" fill="#171B22" stroke="rgba(255,255,255,0.05)" stroke-width="1"/><text x="986" y="274" font-family="ui-monospace,'Cascadia Mono','JetBrains Mono',Consolas,monospace" font-size="11" fill="#9BA4B0" letter-spacing="1">INTERVIEWS</text><text x="986" y="304" font-family="system-ui,'Segoe UI',Roboto,Helvetica,Arial,sans-serif" font-size="26" fill="#F1F3F6" font-weight="700">96</text><text x="1204" y="298" font-family="ui-monospace,'Cascadia Mono','JetBrains Mono',Consolas,monospace" font-size="11" fill="#D0A95F" text-anchor="end">+8%</text><path d="M1008.0 346.0 L1017.3 338.0 L1026.7 342.0 L1036.0 330.0 L1045.3 334.0 L1054.7 322.0 L1064.0 326.0 L1064.0 346.0 L1008 346.0 Z" fill="rgba(208,169,95,0.10)"/><path d="M1008.0 346.0 L1017.3 338.0 L1026.7 342.0 L1036.0 330.0 L1045.3 334.0 L1054.7 322.0 L1064.0 326.0" fill="none" stroke="#D0A95F" stroke-width="2" stroke-linecap="round" stroke-linejoin="round"/><rect x="1242" y="236" width="262" height="118" rx="8" fill="#171B22" stroke="rgba(255,255,255,0.05)" stroke-width="1"/><text x="1264" y="274" font-family="ui-monospace,'Cascadia Mono','JetBrains Mono',Consolas,monospace" font-size="11" fill="#9BA4B0" letter-spacing="1">HIRES</text><text x="1264" y="304" font-family="system-ui,'Segoe UI',Roboto,Helvetica,Arial,sans-serif" font-size="26" fill="#F1F3F6" font-weight="700">31</text><text x="1482" y="298" font-family="ui-monospace,'Cascadia Mono','JetBrains Mono',Consolas,monospace" font-size="11" fill="#D0A95F" text-anchor="end">+2</text><path d="M1286.0 346.0 L1295.3 338.0 L1304.7 342.0 L1314.0 330.0 L1323.3 334.0 L1332.7 322.0 L1342.0 326.0 L1342.0 346.0 L1286 346.0 Z" fill="rgba(208,169,95,0.10)"/><path d="M1286.0 346.0 L1295.3 338.0 L1304.7 342.0 L1314.0 330.0 L1323.3 334.0 L1332.7 322.0 L1342.0 326.0" fill="none" stroke="#D0A95F" stroke-width="2" stroke-linecap="round" stroke-linejoin="round"/><rect x="408" y="384" width="1096" height="500" rx="10" fill="#171B22" stroke="rgba(255,255,255,0.05)" stroke-width="1"/><text x="436" y="426" font-family="ui-monospace,'Cascadia Mono','JetBrains Mono',Consolas,monospace" font-size="11" fill="#5E6673" letter-spacing="2">RECENT APPLICATIONS</text><text x="436" y="456" font-family="system-ui,'Segoe UI',Roboto,Helvetica,Arial,sans-serif" font-size="12" fill="#F1F3F6" font-weight="600">Offers</text><text x="888" y="456" font-family="system-ui,'Segoe UI',Roboto,Helvetica,Arial,sans-serif" font-size="12" fill="#F1F3F6" font-weight="600">Candidates</text><text x="1228" y="456" font-family="system-ui,'Segoe UI',Roboto,Helvetica,Arial,sans-serif" font-size="12" fill="#F1F3F6" font-weight="600">Status</text><line x1="436" y1="470" x2="1476" y2="470" stroke="rgba(255,255,255,0.05)" stroke-width="1"/><rect x="424" y="484" width="1064" height="62" rx="6" fill="rgba(255,255,255,0.02)"/><text x="436" y="512" font-family="system-ui,'Segoe UI',Roboto,Helvetica,Arial,sans-serif" font-size="14" fill="#F1F3F6" font-weight="600">Frontend Engineer</text><text x="436" y="530" font-family="system-ui,'Segoe UI',Roboto,Helvetica,Arial,sans-serif" font-size="11" fill="#5E6673">Casablanca — FULL-TIME</text><circle cx="878" cy="504" r="4" fill="#D0A95F"/><text x="892" y="508" font-family="system-ui,'Segoe UI',Roboto,Helvetica,Arial,sans-serif" font-size="12" fill="#9BA4B0">A. Skali</text><rect x="1108" y="480" width="66" height="28" rx="4" fill="#2B2418" stroke="rgba(208,169,95,0.4)" stroke-width="1"/><text x="1141" y="499" font-family="ui-monospace,'Cascadia Mono','JetBrains Mono',Consolas,monospace" font-size="10" fill="#D0A95F" letter-spacing="1" text-anchor="middle">OPEN</text><rect x="1208" y="490" width="110" height="6" rx="3" fill="#232830"/><rect x="1208" y="490" width="85.8" height="6" rx="3" fill="#D0A95F"/><text x="436" y="588" font-family="system-ui,'Segoe UI',Roboto,Helvetica,Arial,sans-serif" font-size="14" fill="#F1F3F6" font-weight="600">Data Engineer</text><text x="436" y="606" font-family="system-ui,'Segoe UI',Roboto,Helvetica,Arial,sans-serif" font-size="11" fill="#5E6673">Rabat — REMOTE</text><circle cx="878" cy="580" r="4" fill="#D0A95F"/><text x="892" y="584" font-family="system-ui,'Segoe UI',Roboto,Helvetica,Arial,sans-serif" font-size="12" fill="#9BA4B0">A. Skali</text><rect x="1108" y="556" width="66" height="28" rx="4" fill="#2B2418" stroke="rgba(208,169,95,0.4)" stroke-width="1"/><text x="1141" y="575" font-family="ui-monospace,'Cascadia Mono','JetBrains Mono',Consolas,monospace" font-size="10" fill="#D0A95F" letter-spacing="1" text-anchor="middle">REVIEW</text><rect x="1208" y="566" width="110" height="6" rx="3" fill="#232830"/><rect x="1208" y="566" width="61.6" height="6" rx="3" fill="#D0A95F"/><rect x="424" y="636" width="1064" height="62" rx="6" fill="rgba(255,255,255,0.02)"/><text x="436" y="664" font-family="system-ui,'Segoe UI',Roboto,Helvetica,Arial,sans-serif" font-size="14" fill="#F1F3F6" font-weight="600">Fullstack Developer</text><text x="436" y="682" font-family="system-ui,'Segoe UI',Roboto,Helvetica,Arial,sans-serif" font-size="11" fill="#5E6673">Remote — FULL-TIME</text><circle cx="878" cy="656" r="4" fill="#D0A95F"/><text x="892" y="660" font-family="system-ui,'Segoe UI',Roboto,Helvetica,Arial,sans-serif" font-size="12" fill="#9BA4B0">A. Skali</text><rect x="1108" y="632" width="66" height="28" rx="4" fill="#2B2418" stroke="rgba(208,169,95,0.4)" stroke-width="1"/><text x="1141" y="651" font-family="ui-monospace,'Cascadia Mono','JetBrains Mono',Consolas,monospace" font-size="10" fill="#D0A95F" letter-spacing="1" text-anchor="middle">OPEN</text><rect x="1208" y="642" width="110" height="6" rx="3" fill="#232830"/><rect x="1208" y="642" width="96.8" height="6" rx="3" fill="#D0A95F"/><text x="436" y="740" font-family="system-ui,'Segoe UI',Roboto,Helvetica,Arial,sans-serif" font-size="14" fill="#F1F3F6" font-weight="600">DevOps Lead</text><text x="436" y="758" font-family="system-ui,'Segoe UI',Roboto,Helvetica,Arial,sans-serif" font-size="11" fill="#5E6673">Paris — CONTRACT</text><circle cx="878" cy="732" r="4" fill="#D0A95F"/><text x="892" y="736" font-family="system-ui,'Segoe UI',Roboto,Helvetica,Arial,sans-serif" font-size="12" fill="#9BA4B0">A. Skali</text><rect x="1108" y="708" width="66" height="28" rx="4" fill="rgba(255,255,255,0.04)" stroke="none" stroke-width="1"/><text x="1141" y="727" font-family="ui-monospace,'Cascadia Mono','JetBrains Mono',Consolas,monospace" font-size="10" fill="#5E6673" letter-spacing="1" text-anchor="middle">CLOSED</text><rect x="1208" y="718" width="110" height="6" rx="3" fill="#232830"/><rect x="1208" y="718" width="37.4" height="6" rx="3" fill="#D0A95F"/><rect x="424" y="788" width="1064" height="62" rx="6" fill="rgba(255,255,255,0.02)"/><text x="436" y="816" font-family="system-ui,'Segoe UI',Roboto,Helvetica,Arial,sans-serif" font-size="14" fill="#F1F3F6" font-weight="600">Product Designer</text><text x="436" y="834" font-family="system-ui,'Segoe UI',Roboto,Helvetica,Arial,sans-serif" font-size="11" fill="#5E6673">Casablanca — REMOTE</text><circle cx="878" cy="808" r="4" fill="#D0A95F"/><text x="892" y="812" font-family="system-ui,'Segoe UI',Roboto,Helvetica,Arial,sans-serif" font-size="12" fill="#9BA4B0">A. Skali</text><rect x="1108" y="784" width="66" height="28" rx="4" fill="#2B2418" stroke="rgba(208,169,95,0.4)" stroke-width="1"/><text x="1141" y="803" font-family="ui-monospace,'Cascadia Mono','JetBrains Mono',Consolas,monospace" font-size="10" fill="#D0A95F" letter-spacing="1" text-anchor="middle">OPEN</text><rect x="1208" y="794" width="110" height="6" rx="3" fill="#232830"/><rect x="1208" y="794" width="68.2" height="6" rx="3" fill="#D0A95F"/><text x="1560" y="970" font-family="ui-monospace,'Cascadia Mono','JetBrains Mono',Consolas,monospace" font-size="11" fill="#5E6673" letter-spacing="2" text-anchor="end">MOCKUP — 001</text></svg>